<svg width="46" height="39" viewBox="0 0 46 39" fill="none" xmlns="http://www.w3.org/2000/svg">
<rect width="45.878" height="38.447" rx="11.631" fill="url(#paint0_linear_9_12)"/>
<path d="M13.309 12.0274C14.9868 12.0274 16.453 12.3524 17.7076 13.0024C18.9773 13.6372 19.9522 14.5593 20.6324 15.7685C21.3277 16.9626 21.6754 18.3608 21.6754 19.963C21.6754 21.5653 21.3277 22.9559 20.6324 24.1349C19.9522 25.3139 18.9773 26.2208 17.7076 26.8557C16.453 27.4754 14.9868 27.7853 13.309 27.7853H8.16216V12.0274H13.309ZM13.309 25.6767C15.1531 25.6767 16.5663 25.1779 17.5489 24.1802C18.5314 23.1826 19.0226 21.7769 19.0226 19.963C19.0226 18.1341 18.5314 16.7057 17.5489 15.6778C16.5663 14.65 15.1531 14.136 13.309 14.136H10.7469V25.6767H13.309Z" fill="white"/>
<path d="M35.6417 16.5621C35.2336 15.7761 34.6667 15.1866 33.9412 14.7935C33.2156 14.3854 32.3767 14.1814 31.4245 14.1814C30.3815 14.1814 29.4519 14.4157 28.6357 14.8842C27.8194 15.3528 27.177 16.0179 26.7085 16.8795C26.255 17.7411 26.0283 18.7387 26.0283 19.8723C26.0283 21.006 26.255 22.0112 26.7085 22.8879C27.177 23.7494 27.8194 24.4145 28.6357 24.8831C29.4519 25.3517 30.3815 25.586 31.4245 25.586C32.8302 25.586 33.9714 25.193 34.8481 24.407C35.7248 23.621 36.2614 22.5553 36.4579 21.2101H30.5402V19.1468H39.224V21.1647C39.0578 22.3891 38.6194 23.5152 37.909 24.543C37.2137 25.5709 36.2992 26.3946 35.1655 27.0144C34.047 27.619 32.8 27.9213 31.4245 27.9213C29.9432 27.9213 28.5903 27.5812 27.366 26.901C26.1416 26.2057 25.1667 25.2459 24.4411 24.0215C23.7307 22.7972 23.3755 21.4141 23.3755 19.8723C23.3755 18.3306 23.7307 16.9475 24.4411 15.7231C25.1667 14.4988 26.1416 13.5465 27.366 12.8663C28.6054 12.171 29.9583 11.8234 31.4245 11.8234C33.1023 11.8234 34.5912 12.239 35.8911 13.0704C37.2061 13.8866 38.1584 15.0505 38.7479 16.5621H35.6417Z" fill="white"/>
<defs>
<linearGradient id="paint0_linear_9_12" x1="0" y1="0" x2="37.8545" y2="45.1709" gradientUnits="userSpaceOnUse">
<stop stop-color="#86EFAC"/>
<stop offset="0.53125" stop-color="#3B82F6"/>
<stop offset="1" stop-color="#9333EA"/>
</linearGradient>
</defs>
</svg>
