<svg width="193" height="39" viewBox="0 0 193 39" fill="none" xmlns="http://www.w3.org/2000/svg">
<rect width="45.878" height="38.447" rx="11.631" fill="url(#paint0_linear_2_35)"/>
<path d="M13.309 12.0274C14.9868 12.0274 16.453 12.3524 17.7076 13.0023C18.9773 13.6372 19.9522 14.5592 20.6324 15.7685C21.3277 16.9626 21.6754 18.3608 21.6754 19.963C21.6754 21.5652 21.3277 22.9559 20.6324 24.1349C19.9522 25.3139 18.9773 26.2208 17.7076 26.8556C16.453 27.4754 14.9868 27.7852 13.309 27.7852H8.16217V12.0274H13.309ZM13.309 25.6766C15.1531 25.6766 16.5664 25.1778 17.5489 24.1802C18.5314 23.1826 19.0226 21.7769 19.0226 19.963C19.0226 18.134 18.5314 16.7056 17.5489 15.6778C16.5664 14.6499 15.1531 14.136 13.309 14.136H10.7469V25.6766H13.309Z" fill="white"/>
<path d="M35.6417 16.562C35.2336 15.776 34.6667 15.1865 33.9412 14.7935C33.2157 14.3854 32.3767 14.1813 31.4245 14.1813C30.3815 14.1813 29.4519 14.4156 28.6357 14.8842C27.8194 15.3528 27.177 16.0179 26.7085 16.8794C26.255 17.741 26.0283 18.7386 26.0283 19.8723C26.0283 21.006 26.255 22.0111 26.7085 22.8878C27.177 23.7494 27.8194 24.4145 28.6357 24.8831C29.4519 25.3517 30.3815 25.5859 31.4245 25.5859C32.8302 25.5859 33.9714 25.1929 34.8481 24.4069C35.7248 23.6209 36.2614 22.5553 36.4579 21.21H30.5402V19.1468H39.224V21.1647C39.0578 22.389 38.6194 23.5151 37.909 24.543C37.2137 25.5708 36.2992 26.3946 35.1655 27.0144C34.047 27.619 32.8 27.9213 31.4245 27.9213C29.9432 27.9213 28.5903 27.5812 27.366 26.901C26.1416 26.2057 25.1667 25.2458 24.4411 24.0215C23.7307 22.7971 23.3755 21.4141 23.3755 19.8723C23.3755 18.3305 23.7307 16.9475 24.4411 15.7231C25.1667 14.4988 26.1416 13.5465 27.366 12.8663C28.6054 12.171 29.9583 11.8233 31.4245 11.8233C33.1023 11.8233 34.5912 12.239 35.8911 13.0704C37.2061 13.8866 38.1584 15.0505 38.7479 16.562H35.6417Z" fill="white"/>
<path d="M94.1022 0.797394V38.4471H84.9311V15.868L76.5109 38.4471H69.1097L60.6359 15.8144V38.4471H51.4648V0.797394H62.2984L72.8639 26.8625L83.3222 0.797394H94.1022Z" fill="white"/>
<path d="M126.762 23.001C126.762 23.8592 126.709 24.753 126.602 25.6826H105.846C105.989 27.5419 106.579 28.9721 107.616 29.9732C108.688 30.9386 109.993 31.4213 111.531 31.4213C113.819 31.4213 115.41 30.4559 116.304 28.5251H126.065C125.565 30.4916 124.653 32.2615 123.33 33.8347C122.043 35.4079 120.416 36.6414 118.449 37.5353C116.483 38.4292 114.284 38.8761 111.853 38.8761C108.921 38.8761 106.311 38.2504 104.022 36.999C101.734 35.7476 99.9464 33.9598 98.6593 31.6358C97.3721 29.3117 96.7285 26.5944 96.7285 23.4837C96.7285 20.3731 97.3542 17.6557 98.6056 15.3317C99.8928 13.0076 101.681 11.2199 103.969 9.96847C106.257 8.71705 108.885 8.09134 111.853 8.09134C114.749 8.09134 117.323 8.69917 119.576 9.91483C121.828 11.1305 123.58 12.8646 124.832 15.1171C126.119 17.3697 126.762 19.9976 126.762 23.001ZM117.377 20.5876C117.377 19.0144 116.841 17.763 115.768 16.8334C114.695 15.9037 113.354 15.4389 111.745 15.4389C110.208 15.4389 108.903 15.8859 107.83 16.7797C106.793 17.6736 106.15 18.9429 105.9 20.5876H117.377Z" fill="white"/>
<path d="M147.69 8.19861C151.194 8.19861 153.983 9.34276 156.057 11.6311C158.166 13.8836 159.221 16.9943 159.221 20.963V38.4471H150.104V22.1966C150.104 20.1943 149.585 18.639 148.548 17.5306C147.511 16.4222 146.117 15.868 144.365 15.868C142.613 15.868 141.219 16.4222 140.182 17.5306C139.145 18.639 138.626 20.1943 138.626 22.1966V38.4471H129.455V8.5204H138.626V12.4892C139.556 11.1662 140.807 10.1294 142.381 9.37851C143.954 8.59191 145.724 8.19861 147.69 8.19861Z" fill="white"/>
<path d="M193 8.5204V38.4471H183.829V34.371C182.899 35.6939 181.63 36.7666 180.021 37.5889C178.448 38.3755 176.696 38.7688 174.765 38.7688C172.477 38.7688 170.457 38.2683 168.705 37.2672C166.953 36.2303 165.594 34.7464 164.629 32.8157C163.663 30.8849 163.181 28.6145 163.181 26.0044V8.5204H172.298V24.7709C172.298 26.7732 172.817 28.3285 173.853 29.4369C174.89 30.5453 176.285 31.0995 178.037 31.0995C179.824 31.0995 181.237 30.5453 182.274 29.4369C183.311 28.3285 183.829 26.7732 183.829 24.7709V8.5204H193Z" fill="white"/>
<defs>
<linearGradient id="paint0_linear_2_35" x1="0" y1="0" x2="37.8545" y2="45.1709" gradientUnits="userSpaceOnUse">
<stop stop-color="#86EFAC"/>
<stop offset="0.53125" stop-color="#3B82F6"/>
<stop offset="1" stop-color="#9333EA"/>
</linearGradient>
</defs>
</svg>
